<svg width="80" height="80" id="Layer_1" data-name="Layer 1" xmlns="http://www.w3.org/2000/svg" xmlns:xlink="http://www.w3.org/1999/xlink" viewBox="0 0 79.27 63.16"><defs><style>.cls-1{fill:url(#linear-gradient);}.cls-2{fill:url(#linear-gradient-2);}.cls-3{fill:url(#linear-gradient-3);}</style><linearGradient id="linear-gradient" x1="32.68" y1="36.9" x2="45.16" y2="26.99" gradientUnits="userSpaceOnUse"><stop offset="0" stop-color="#9013fe"/><stop offset="1" stop-color="#6610f2"/></linearGradient><linearGradient id="linear-gradient-2" x1="32.71" y1="51.97" x2="46.54" y2="41" xlink:href="#linear-gradient"/><linearGradient id="linear-gradient-3" x1="8.33" y1="65.29" x2="77.59" y2="10.31" xlink:href="#linear-gradient"/></defs><title>icon-bootstrap</title><path class="cls-1" d="M46.4,32.47c0-3.12-2.2-4.85-6.06-4.85H33.23v10h6C43.85,37.66,46.4,35.79,46.4,32.47Z" transform="translate(-0.35 -8.58)"/><path class="cls-2" d="M40.29,41.64H33.23V52.7H40.6c4.82,0,7.37-1.94,7.37-5.57S45.35,41.64,40.29,41.64Z" transform="translate(-0.35 -8.58)"/><path class="cls-3" d="M72.26,30.67a44.39,44.39,0,0,1-1.38-13.83,7.91,7.91,0,0,0-7.72-8.26H16.81a7.9,7.9,0,0,0-7.72,8.26A44.11,44.11,0,0,1,7.7,30.67C6.36,35,4.07,37.8.35,38.15v4c3.72.35,6,3.12,7.35,7.49A44,44,0,0,1,9.09,63.49a7.9,7.9,0,0,0,7.72,8.26H63.16a7.91,7.91,0,0,0,7.72-8.26,44.3,44.3,0,0,1,1.38-13.82c1.35-4.37,3.63-7.14,7.35-7.49v-4C75.89,37.8,73.61,35,72.26,30.67ZM41.7,57H27.89V23.36H41.63c6.1,0,10.11,3.31,10.11,8.38a7.49,7.49,0,0,1-6.13,7.31v.19c4.68.51,7.82,3.75,7.82,8.22C53.43,53.37,49,57,41.7,57Z" transform="translate(-0.35 -8.58)"/></svg>