<svg width="60" height="50" id="Layer_1" data-name="Layer 1" xmlns="http://www.w3.org/2000/svg" viewBox="0 0 67.93 77.03"><defs><style>.cls-1{fill:#264de3;}.cls-2{fill:#fefefe;}.cls-3{fill:#2965f0;}</style></defs><title>icons-css</title><path class="cls-1" d="M16,11.49H84l-.3,3.4c-.11,1.16-.21,2.31-.31,3.47L83,22c-.1,1.19-.21,2.38-.31,3.57l-.33,3.64c-.1,1.18-.21,2.35-.31,3.53l-.36,4c-.11,1.19-.21,2.38-.32,3.57l-.36,4c-.11,1.18-.21,2.37-.32,3.56s-.21,2.42-.32,3.63-.21,2.36-.32,3.53l-.36,4c-.1,1.18-.21,2.37-.31,3.56l-.33,3.63c-.1,1.18-.21,2.35-.31,3.53l-.33,3.62c-.1,1.18-.21,2.37-.31,3.55s-.22,2.41-.32,3.62a.29.29,0,0,1-.25.31L65.07,84.33,51.15,88.19a10.8,10.8,0,0,0-1.11.32h-.15a.27.27,0,0,0-.17-.06l-7.47-2.08L22.56,80.91c-.33-.09-.33-.09-.36-.43-.14-1.48-.27-3-.41-4.44s-.23-2.67-.35-4-.27-3-.4-4.42l-.39-4.44c-.13-1.47-.27-3-.4-4.43l-.39-4.42c-.14-1.62-.29-3.23-.43-4.85s-.29-3.23-.43-4.85-.29-3.23-.44-4.84l-.39-4.44c-.16-1.75-.32-3.51-.47-5.26l-.51-5.69c-.2-2.31-.41-4.63-.62-6.94Q16.3,14.48,16,11.49ZM50,42.85l-.28,0H30.35c-.11,0-.14,0-.13.14.05.45.09.91.13,1.36.1,1.19.21,2.39.32,3.58s.2,2.11.28,3.16c0,.21.08.26.28.26H49.72a.88.88,0,0,1,.28,0V64.93c-.07.06-.13,0-.19,0l-4.67-1.26-4.5-1.21c-.08,0-.15,0-.16-.16-.08-1-.17-1.92-.26-2.89-.1-1.19-.21-2.38-.31-3.57,0-.17-.08-.21-.24-.21-2.7,0-5.39,0-8.09,0a.4.4,0,0,1-.11,0c-.09,0-.12,0-.1.13s0,.37.05.56c.12,1.33.23,2.67.35,4s.27,2.94.4,4.41.24,2.67.35,4a.28.28,0,0,0,.25.3c4.52,1.24,9,2.5,13.56,3.75l3.67,1v8.56c0,.24,0,.25.22.19l3.19-.88,5.71-1.59,5-1.38,5.71-1.59,2.48-.68c.09,0,.16-.07.17-.18s0-.33,0-.5c0-.48.08-1,.13-1.44s.09-1,.13-1.46.08-1,.13-1.45c0-.66.11-1.32.17-2,0-.48.09-1,.13-1.44s.09-1,.14-1.46l.12-1.45.18-1.95.12-1.43.18-2,.12-1.43c0-.51.1-1,.14-1.52l.12-1.42.18-2c0-.48.09-1,.13-1.45s.09-1,.14-1.46l.12-1.46.18-1.92.12-1.46c.05-.5.09-1,.14-1.51l.12-1.42.18-1.94.12-1.44.18-2c0-.47.09-.94.13-1.4.06-.64.11-1.28.17-1.93,0-.49.09-1,.13-1.47s.09-1,.14-1.46l.12-1.45.18-2,.12-1.45c0-.49.1-1,.14-1.46l.12-1.46.18-1.88c.06-.63.1-1.26.16-1.89l.21-2.26c0-.11,0-.18-.15-.17H50.31c-.31,0-.31,0-.31.3v8.18H29a1,1,0,0,1-.17,0c-.09,0-.11,0-.1.13.13,1.36.25,2.73.37,4.09s.25,2.69.37,4c0,.25,0,.25.27.25H50Z" transform="translate(-16.04 -11.49)"/><path class="cls-2" d="M50,34.17H29.7c-.25,0-.25,0-.27-.25-.12-1.34-.24-2.68-.37-4s-.24-2.73-.37-4.09c0-.09,0-.14.1-.13a1,1,0,0,0,.17,0H71c.18,0,.23,0,.21.22-.11,1.18-.21,2.36-.31,3.54-.14,1.47-.27,2.94-.4,4.41s-.24,2.67-.35,4-.27,3-.4,4.44l-.39,4.38c-.14,1.47-.27,2.94-.4,4.41l-.36,4-.39,4.42c-.14,1.47-.26,2.94-.39,4.41-.15,1.62-.3,3.24-.44,4.85a.25.25,0,0,1-.23.27l-2.13.59L52,73.25l-2,.56-3.67-1c-4.52-1.25-9-2.51-13.56-3.75a.28.28,0,0,1-.25-.3c-.11-1.34-.23-2.67-.35-4s-.27-2.94-.4-4.41-.23-2.68-.35-4c0-.19,0-.38-.05-.56s0-.13.1-.13a.4.4,0,0,0,.11,0c2.7,0,5.39,0,8.09,0,.16,0,.22,0,.24.21.1,1.19.21,2.38.31,3.57.09,1,.18,1.93.26,2.89,0,.12.08.13.16.16l4.5,1.21,4.67,1.26c.06,0,.12.07.19,0l.18,0,3.79-1,5.31-1.43c.11,0,.18-.06.19-.2.1-1.18.21-2.35.31-3.52s.21-2.33.31-3.5l.33-3.63c0-.2,0-.24-.22-.24H50a.88.88,0,0,0-.28,0H31.23c-.2,0-.27,0-.28-.26-.08-1-.19-2.11-.28-3.16s-.22-2.39-.32-3.58c0-.45-.08-.91-.13-1.36,0-.11,0-.16.13-.14H49.72l.28,0H61c.13,0,.17,0,.18-.17,0-.38.06-.75.09-1.13.21-2.39.42-4.79.65-7.19,0-.21-.06-.22-.23-.22H50Z" transform="translate(-16.04 -11.49)"/><path class="cls-3" d="M50,73.81l2-.56,13.09-3.63L67.19,69a.25.25,0,0,0,.23-.27c.14-1.61.29-3.23.44-4.85.13-1.47.25-2.94.39-4.41l.39-4.42.36-4c.13-1.47.26-2.94.4-4.41l.39-4.38c.13-1.48.26-3,.4-4.44s.23-2.67.35-4,.26-2.94.4-4.41c.1-1.18.2-2.36.31-3.54,0-.19,0-.22-.21-.22H50V17.47c0-.3,0-.3.31-.3H77.6c.12,0,.16.06.15.17l-.21,2.26c-.06.63-.1,1.26-.16,1.89l-.18,1.88-.12,1.46c0,.49-.09,1-.14,1.46l-.12,1.45-.18,2-.12,1.45c0,.49-.09,1-.14,1.46s-.08,1-.13,1.47c-.06.65-.11,1.29-.17,1.93,0,.46-.09.93-.13,1.4l-.18,2-.12,1.44-.18,1.94-.12,1.42c0,.5-.09,1-.14,1.51l-.12,1.46-.18,1.92-.12,1.46c-.05.49-.09,1-.14,1.46s-.08,1-.13,1.45l-.18,2-.12,1.42c0,.51-.09,1-.14,1.52L74,59.75l-.18,2-.12,1.43-.18,1.95-.12,1.45c0,.49-.09,1-.14,1.46s-.08,1-.13,1.44c-.06.66-.12,1.32-.17,2,0,.48-.09,1-.13,1.45s-.09,1-.13,1.46-.09,1-.13,1.44c0,.17,0,.34,0,.5s-.08.15-.17.18l-2.48.68-5.71,1.59-5,1.38-5.71,1.59-3.19.88c-.21.06-.22,0-.22-.19Z" transform="translate(-16.04 -11.49)"/><path class="cls-3" d="M50,51.38H60.2c.19,0,.24,0,.22.24l-.33,3.63c-.1,1.17-.21,2.33-.31,3.5s-.21,2.34-.31,3.52c0,.14-.08.17-.19.2L54,63.88l-3.79,1-.18,0V51.38Z" transform="translate(-16.04 -11.49)"/><path class="cls-3" d="M50,34.17H61.71c.17,0,.25,0,.23.22-.23,2.4-.44,4.8-.65,7.19,0,.38-.07.75-.09,1.13,0,.12-.05.17-.18.17H50Z" transform="translate(-16.04 -11.49)"/></svg>