<svg width="80" height="80" fill="#3ebff8" id="Layer_1" data-name="Layer 1" xmlns="http://www.w3.org/2000/svg" viewBox="0 0 666.67 397.6"><title>icon-tailwind</title><path class="cls-1" d="M400,201.2q-133.35,0-166.67,132.53,50-66.24,116.67-49.7c25.37,6.3,43.5,24.6,63.53,44.84,32.7,33,70.54,71.13,153.14,71.13Q700,400,733.33,267.47q-50,66.24-116.66,49.7c-25.37-6.3-43.5-24.6-63.57-44.84-32.67-33-70.47-71.13-153.1-71.13ZM233.33,400Q100,400,66.67,532.53q50-66.3,116.66-49.7c25.37,6.3,43.5,24.6,63.57,44.84,32.67,33,70.5,71.13,153.13,71.13q133.35,0,166.67-132.53Q516.7,532.51,450,516c-25.36-6.3-43.5-24.6-63.53-44.84C353.77,438.17,315.93,400,233.33,400Z" transform="translate(-66.67 -201.2)"/></svg>